<svg id="Layer_1" data-name="Layer 1" xmlns="http://www.w3.org/2000/svg" viewBox="0 0 128.72 87.49"><defs><style>.cls-1{fill:none;}.cls-2{fill:#c74056;}.cls-3{fill:#e0b1aa;}</style></defs><title>NGA-logo</title><polygon class="cls-1" points="90.58 39.83 112.79 39.83 101.64 10.69 90.58 39.83"/><polygon class="cls-2" points="38.54 32.43 46.66 32.43 46.72 32.43 46.72 0 38.47 0 38.47 41.27 8.5 0 0 0 0 55.06 8.26 55.06 8.26 12.79 38.54 54.82 38.54 40.55 38.54 32.43"/><rect x="46.67" y="40.55" width="0.06" height="14.51"/><polygon class="cls-2" points="46.72 32.43 46.72 40.55 81.81 40.55 85.03 32.43 46.72 32.43"/><polygon class="cls-2" points="38.54 54.82 38.54 79.37 38.54 87.49 46.66 87.49 75.56 87.49 83.69 87.49 83.69 79.37 83.69 66.7 83.69 58.58 75.56 58.58 59.72 58.58 59.72 66.7 75.56 66.7 75.56 79.37 46.66 79.37 46.66 55.06 38.72 55.06 38.54 54.82"/><polygon class="cls-3" points="46.66 32.43 38.54 32.43 38.54 40.55 38.54 54.82 38.72 55.06 46.66 55.06 46.66 40.55 46.72 40.55 46.72 32.43 46.66 32.43"/><path class="cls-2" d="M211.88,192.69H201.56l-11.49,28.92-3.23,8.12-7.15,18h9.08l4.45-11.4h27l4.46,11.4h9.08ZM195.62,229l11.06-29.14L217.82,229Z" transform="translate(-105.04 -189.18)"/></svg>