<svg id="Layer_1" data-name="Layer 1" xmlns="http://www.w3.org/2000/svg" viewBox="0 0 255.62 255.58"><defs><style>.cls-1{fill:#f15a25;}</style></defs><title>FV-logo</title><path class="cls-1" d="M279.84,184a127.78,127.78,0,0,0-219.47-62.5l13.57,32.54c20.57-7.55,41.17,41.08,41.17,41.08C146.23,252.42,147,292.47,147,292.47a13.35,13.35,0,0,1-8.46,10.95c-11,1.11-13.87-6.1-13.87-6.1L47.77,137.64a127.73,127.73,0,0,0,108.4,198.21l26.07-76.5c-9.05-4.85-13.74-14.93-10.62-24.1L207.25,130.7a3.54,3.54,0,0,1,6.67,2.27l-25.66,75.3-.35,1a4.25,4.25,0,0,0,8,2.73l.35-1,25.65-75.3a3.54,3.54,0,0,1,6.67,2.28l-25.65,75.3.08,0-.35,1a4.25,4.25,0,0,0,8,2.73l26.22-76.95a3.43,3.43,0,0,1,4.07-1.28,3.39,3.39,0,0,1,2.35,4l-26.07,76.5a4.24,4.24,0,0,0,8,2.72l.34-1h0l25.66-75.3A3.54,3.54,0,0,1,258,148L222.39,252.54c-3.13,9.17-13,14.3-23.14,12.6L175.78,334c.88-.15,1.76-.26,2.65-.43A127.8,127.8,0,0,0,279.84,184Z" transform="translate(-26.53 -80.29)"/><path class="cls-1" d="M170.38,128.59" transform="translate(-26.53 -80.29)"/></svg>