<svg id="Layer_1" data-name="Layer 1" xmlns="http://www.w3.org/2000/svg" viewBox="0 0 255.62 255.58"><defs><style>.cls-1{fill:#f05922;}</style></defs><title>FV_logo</title><path class="cls-1" d="M808.84,322a127.78,127.78,0,0,0-219.47-62.5l13.57,32.54c20.57-7.55,41.17,41.08,41.17,41.08C675.23,390.42,676,430.47,676,430.47a13.35,13.35,0,0,1-8.46,10.95c-11,1.11-13.87-6.1-13.87-6.1L576.77,275.64a127.73,127.73,0,0,0,108.4,198.21l26.07-76.5c-9-4.85-13.74-14.93-10.62-24.1L736.25,268.7a3.54,3.54,0,0,1,6.67,2.27l-25.66,75.3-.35,1a4.25,4.25,0,0,0,8,2.73l.35-1,25.65-75.3a3.54,3.54,0,0,1,6.67,2.28l-25.65,75.3.08,0-.35,1a4.25,4.25,0,0,0,8,2.73l26.22-77a3.43,3.43,0,0,1,4.07-1.28,3.39,3.39,0,0,1,2.35,4l-26.07,76.5a4.24,4.24,0,0,0,8,2.72l.34-1h0l25.66-75.3A3.54,3.54,0,0,1,787,286L751.39,390.54c-3.13,9.17-13,14.3-23.14,12.6L704.78,472c.88-.15,1.76-.26,2.65-.43A127.8,127.8,0,0,0,808.84,322Z" transform="translate(-555.53 -218.29)"/><path class="cls-1" d="M699.38,266.59" transform="translate(-555.53 -218.29)"/></svg>