<svg id="Layer_1" data-name="Layer 1" xmlns="http://www.w3.org/2000/svg" viewBox="0 0 115.61 34.84"><defs><style>.cls-1{fill:#f8991d;}.cls-2{fill:#231f20;}</style></defs><title>amazon-logo</title><path id="path8" class="cls-1" d="M172.25,213.15c-6.71,4.95-16.45,7.59-24.84,7.59a44.89,44.89,0,0,1-30.34-11.58c-.63-.56-.07-1.34.69-.9a61,61,0,0,0,30.36,8.06,60.32,60.32,0,0,0,23.16-4.74c1.14-.48,2.09.74,1,1.57" transform="translate(-100.53 -185.9)"/><path id="path10" class="cls-1" d="M175.05,210c-.86-1.09-5.68-.51-7.84-.26-.66.08-.76-.49-.17-.9,3.84-2.71,10.14-1.93,10.88-1s-.2,7.23-3.8,10.24c-.56.46-1.09.22-.84-.4.81-2,2.63-6.55,1.77-7.66" transform="translate(-100.53 -185.9)"/><path id="path12" class="cls-2" d="M167.36,189.71v-2.63a.64.64,0,0,1,.66-.66h11.76a.65.65,0,0,1,.68.66v2.25c0,.38-.32.87-.88,1.65l-6.1,8.7a13,13,0,0,1,6.71,1.44,1.19,1.19,0,0,1,.62,1V205c0,.38-.42.83-.86.6a13.53,13.53,0,0,0-12.43,0c-.4.22-.83-.23-.83-.61V202.3a3.16,3.16,0,0,1,.43-1.81l7.06-10.12H168a.65.65,0,0,1-.68-.66" transform="translate(-100.53 -185.9)"/><path id="path14" class="cls-2" d="M124.46,206.1h-3.58a.68.68,0,0,1-.64-.61V187.13a.67.67,0,0,1,.69-.66h3.33a.66.66,0,0,1,.65.61v2.4H125a4.72,4.72,0,0,1,4.71-3.4c2.24,0,3.64,1.08,4.64,3.4a5.29,5.29,0,0,1,9.09-1.39c1.13,1.54.9,3.79.9,5.75v11.59a.67.67,0,0,1-.69.67h-3.57a.68.68,0,0,1-.64-.67V195.7a23.11,23.11,0,0,0-.1-3.44,1.87,1.87,0,0,0-2.11-1.58,2.39,2.39,0,0,0-2.14,1.5,11.37,11.37,0,0,0-.33,3.52v9.73a.68.68,0,0,1-.69.67h-3.57a.68.68,0,0,1-.64-.67V195.7c0-2,.34-5.06-2.2-5.06s-2.48,2.94-2.48,5.06v9.73a.67.67,0,0,1-.68.67" transform="translate(-100.53 -185.9)"/><path id="path16" class="cls-2" d="M190.59,186.08c5.31,0,8.18,4.56,8.18,10.36,0,5.6-3.17,10-8.18,10-5.22,0-8.05-4.56-8.05-10.24s2.87-10.16,8.05-10.16m0,3.75c-2.64,0-2.81,3.59-2.81,5.83s0,7,2.78,7,2.9-3.87,2.9-6.22a16.9,16.9,0,0,0-.53-4.87,2.24,2.24,0,0,0-2.34-1.78" transform="translate(-100.53 -185.9)"/><path id="path18" class="cls-2" d="M205.66,206.1h-3.57a.68.68,0,0,1-.64-.67V187.07a.68.68,0,0,1,.69-.6h3.32a.67.67,0,0,1,.64.51v2.81h.06c1-2.51,2.41-3.71,4.88-3.71a4.71,4.71,0,0,1,4.18,2.16c.93,1.47.93,3.94.93,5.72v11.56a.68.68,0,0,1-.69.58h-3.58a.69.69,0,0,1-.64-.58v-10c0-2,.23-5-2.24-5a2.34,2.34,0,0,0-2.07,1.47,8.18,8.18,0,0,0-.57,3.48v9.88a.68.68,0,0,1-.69.67" transform="translate(-100.53 -185.9)"/><g id="use28"><path id="path30" class="cls-2" d="M158,197.33v-.78c-2.58,0-5.32.56-5.32,3.61,0,1.54.8,2.59,2.18,2.59a2.9,2.9,0,0,0,2.47-1.63,6.94,6.94,0,0,0,.67-3.79m3.61,8.72a.74.74,0,0,1-.85.08,8.94,8.94,0,0,1-2.05-2.38,7.08,7.08,0,0,1-5.9,2.6c-3,0-5.35-1.86-5.35-5.58a6.06,6.06,0,0,1,3.81-5.84c1.95-.86,4.66-1,6.73-1.25v-.46a4.58,4.58,0,0,0-.43-2.59,2.39,2.39,0,0,0-2-.93,2.73,2.73,0,0,0-2.88,2.15.73.73,0,0,1-.62.65l-3.47-.37a.63.63,0,0,1-.53-.75c.8-4.21,4.6-5.48,8-5.48a8.11,8.11,0,0,1,5.39,1.79c1.74,1.62,1.57,3.79,1.57,6.15v5.58a4.9,4.9,0,0,0,1.35,3.31.66.66,0,0,1,0,1c-.73.61-2,1.74-2.74,2.38h0" transform="translate(-100.53 -185.9)"/></g><path id="path30-2" data-name="path30" class="cls-2" d="M111.07,197.33v-.78c-2.58,0-5.32.56-5.32,3.61,0,1.54.8,2.59,2.18,2.59a2.88,2.88,0,0,0,2.47-1.63,6.94,6.94,0,0,0,.67-3.79m3.61,8.72a.72.72,0,0,1-.84.08,8.82,8.82,0,0,1-2.06-2.38,7.08,7.08,0,0,1-5.89,2.6c-3,0-5.36-1.86-5.36-5.58a6.07,6.07,0,0,1,3.82-5.84c1.94-.86,4.65-1,6.72-1.25v-.46a4.58,4.58,0,0,0-.43-2.59,2.39,2.39,0,0,0-2-.93,2.73,2.73,0,0,0-2.88,2.15.73.73,0,0,1-.61.65l-3.48-.37a.63.63,0,0,1-.53-.75c.8-4.21,4.6-5.48,8-5.48a8.11,8.11,0,0,1,5.39,1.79c1.74,1.62,1.58,3.79,1.58,6.15v5.58a4.85,4.85,0,0,0,1.35,3.31.67.67,0,0,1,0,1c-.73.61-2,1.74-2.75,2.38h0" transform="translate(-100.53 -185.9)"/></svg>