<?xml version="1.0" encoding="utf-8"?>
<!-- Generator: Adobe Illustrator 22.1.0, SVG Export Plug-In . SVG Version: 6.00 Build 0)  -->
<svg version="1.1" id="Layer_1" xmlns="http://www.w3.org/2000/svg" xmlns:xlink="http://www.w3.org/1999/xlink" x="0px" y="0px"
	 viewBox="0 0 207 207" style="enable-background:new 0 0 207 207;" xml:space="preserve">
<style type="text/css">
	.st0{fill:#50BA83;}
</style>
<g>
	<g>
		<path class="st0" d="M165.8,202.4c-9.4,0-18.7-3.6-25.9-10.7L15.9,67.7C1.7,53.5,1.7,30.3,15.9,16C30.2,1.7,53.4,1.7,67.7,16
			l123.9,123.9c14.3,14.3,14.3,37.5,0,51.7C184.5,198.8,175.1,202.4,165.8,202.4z M41.8,10.1c-8.5,0-16.5,3.3-22.5,9.3
			s-9.3,14-9.3,22.5c0,8.5,3.3,16.5,9.3,22.5l123.9,123.9c6,6,14,9.3,22.5,9.3s16.5-3.3,22.5-9.3c6-6,9.3-14,9.3-22.5
			c0-8.5-3.3-16.5-9.3-22.5L64.3,19.4C58.3,13.4,50.3,10.1,41.8,10.1z"/>
		<path class="st0" d="M41.8,202.4c-9.4,0-18.7-3.6-25.9-10.7c-14.3-14.3-14.3-37.5,0-51.7L139.9,16c14.3-14.3,37.5-14.3,51.7,0
			c14.3,14.3,14.3,37.5,0,51.7L67.7,191.7C60.6,198.8,51.2,202.4,41.8,202.4z M165.8,10.1c-8.5,0-16.5,3.3-22.5,9.3L19.3,143.3
			c-6,6-9.3,14-9.3,22.5c0,8.5,3.3,16.5,9.3,22.5c6,6,14,9.3,22.5,9.3s16.5-3.3,22.5-9.3L188.2,64.3c6-6,9.3-14,9.3-22.5
			c0-8.5-3.3-16.5-9.3-22.5C182.3,13.4,174.3,10.1,165.8,10.1z"/>
	</g>
	<path class="st0" d="M140.2,142.5c0,0,3.2,1.5,2.8-2.8c0,0-0.3-5.5,6.5-6.4c0,0,6-1.6,8.1,4.7c0,0,1.7,3.4,0.6,6.2
		c0,0-1.4,3.1,0.4,4.9l10.2,10.5c0,0,1,1.9,3.3,1.2c0,0,5.8-3.6,10,0.9c0,0,4.1,2.9,1.9,9c0,0-1.3,3.8-6.4,4.9c0,0-2,0.1-1.9,1.5
		c0,0-0.6,3.8-3.1,5.4c0,0-4.6,4.1-10.3,1.2c0,0-3.4-1.9-3.2-8l0.9-2.5c0,0,1.6-2.5-0.4-4.5l-11.3-11.2c0,0-0.9-1-2.6-0.3
		c0,0-5.7,3.2-10.2-0.7c0,0-4.5-3.9-1.9-10C133.6,146.4,135.6,142,140.2,142.5z"/>
</g>
</svg>
