<?xml version="1.0" encoding="UTF-8"?>
<svg width="120px" height="120px" viewBox="0 0 120 120" version="1.1" xmlns="http://www.w3.org/2000/svg" xmlns:xlink="http://www.w3.org/1999/xlink">
    <!-- Generator: Sketch 44.1 (41455) - http://www.bohemiancoding.com/sketch -->
    <title>ic-ux</title>
    <desc>Created with Sketch.</desc>
    <defs></defs>
    <g id="Symbols" stroke="none" stroke-width="1" fill="none" fill-rule="evenodd" stroke-linejoin="round">
        <g id="ic-ux" stroke="#202020" stroke-width="1.5">
            <g id="Userinterface_comment" transform="translate(2.000000, 26.000000)">
                <path d="M61.4879032,25.1076923 C66.2177419,29.5015385 69.2133065,35.9353846 69.2133065,42.9969231 C69.2133065,46.6061538 68.425,50.0584615 67.0060484,53.1969231 C67.0060484,53.1969231 65.7447581,59.7876923 72.5241935,66.5353846 C72.5241935,66.5353846 60.0689516,69.2030769 55.6544355,64.9661538 C52.3435484,66.5353846 48.7173387,67.4769231 44.7758065,67.4769231 C36.7350806,67.4769231 29.4826613,63.5538462 25.0681452,57.5907692" id="Shape"></path>
                <path d="M0,51.1569231 C0,51.1569231 13.0858871,53.8246154 17.8157258,49.5876923 C21.2842742,51.3138462 25.0681452,52.2553846 29.325,52.2553846 C43.5145161,52.2553846 55.1814516,40.6430769 55.1814516,26.52 C55.1814516,12.24 43.6721774,0.784615385 29.325,0.784615385 C15.1354839,0.784615385 3.46854839,12.3969231 3.46854839,26.52 C3.46854839,30.2861538 4.25685484,34.0523077 5.83346774,37.1907692 C5.83346774,37.1907692 7.25241935,44.0953846 4.20094067e-15,51.1569231 L0,51.1569231 Z" id="Shape"></path>
            </g>
        </g>
    </g>
</svg>