<?xml version="1.0" encoding="UTF-8"?>
<svg width="120px" height="120px" viewBox="0 0 120 120" version="1.1" xmlns="http://www.w3.org/2000/svg" xmlns:xlink="http://www.w3.org/1999/xlink">
    <!-- Generator: Sketch 44.1 (41455) - http://www.bohemiancoding.com/sketch -->
    <title>ic-vd</title>
    <desc>Created with Sketch.</desc>
    <defs></defs>
    <g id="Symbols" stroke="none" stroke-width="1" fill="none" fill-rule="evenodd" stroke-linecap="round" stroke-linejoin="round">
        <g id="ic-vd" stroke="#202020" stroke-width="1.5">
            <g id="Group-2" transform="translate(41.304561, 56.611811) rotate(-26.000000) translate(-41.304561, -56.611811) translate(-3.600201, 10.611811)">
                <g id="Design_design-palet" transform="translate(36.690476, 37.785714) rotate(-69.000000) translate(-36.690476, -37.785714) translate(7.666667, 9.857143)">
                    <path d="M45.72174,49.1650123 C42.1724045,51.9726899 38.3621801,54.5980292 34.198877,55.0130477 C29.6987713,55.4616383 26.5105644,52.4140914 27.5340556,48.2789096 C28.4923942,44.406966 33.0605748,41.7762935 30.2399502,38.8515688 C26.1811082,34.6429345 17.6670242,44.1254118 9.94574027,42.8918577 C-3.75285145,40.7033679 -3.31314357,19.2786584 12.0522657,6.98985029 C24.8671934,-3.25906983 42.8922942,-2.00249957 52.1898836,9.64383528 C61.4874594,21.2901701 58.5915974,38.9844135 45.7217942,49.1649988 L45.72174,49.1650123 Z" id="Shape"></path>
                    <path d="M18.461583,24.235174 C20.7511351,26.5145403 20.7511351,30.2101343 18.461583,32.4895006 C16.1720308,34.7688669 12.4599221,34.7688669 10.17037,32.4895006 C7.88081778,30.2101343 7.88081778,26.5145403 10.17037,24.235174 C12.4599221,21.9558077 16.1720308,21.9558077 18.461583,24.235174" id="Shape"></path>
                    <path d="M25.2998322,12.0076324 C26.8849048,13.5856531 26.8849048,16.1441434 25.2998322,17.7221641 C23.7147597,19.3001848 21.1448363,19.3001848 19.5597638,17.7221641 C17.9746913,16.1441434 17.9746913,13.5856531 19.5597638,12.0076324 C21.1448363,10.4296116 23.7147597,10.4296116 25.2998322,12.0076324" id="Shape"></path>
                    <path d="M37.7897471,10.3536318 C38.802435,11.3618143 38.802435,12.9963993 37.7897471,14.0045886 C36.7770593,15.0127711 35.1351697,15.0127711 34.1224751,14.0045886 C33.1097873,12.996406 33.1097873,11.361821 34.1224751,10.3536318 C35.135163,9.34544922 36.7770525,9.34544922 37.7897471,10.3536318" id="Shape"></path>
                    <path d="M47.8336197,16.5489361 C48.417016,17.129737 48.417016,18.0713961 47.8336197,18.652205 C47.2502234,19.2330059 46.3043563,19.2330059 45.7209519,18.652205 C45.1375556,18.0714042 45.1375556,17.1297451 45.7209519,16.5489361 C46.3043482,15.9681353 47.2502153,15.9681353 47.8336197,16.5489361" id="Shape"></path>
                </g>
                <g id="Design_point-brush" transform="translate(63.033547, 65.131598) scale(-1, -1) translate(-63.033547, -65.131598) translate(36.747833, 38.845884)">
                    <path d="M13.8780201,47.1785355 C11.3510886,49.6960387 3.81210726,51.7368767 0.151769437,51.7368767 C3.04953203,49.0018694 0.914339493,41.8604643 4.72718201,38.0618401 C7.2541135,35.5443369 11.3510886,35.5443369 13.8780201,38.0618401 C16.4049516,40.5793434 16.4049516,44.6610322 13.8780202,47.1785355 L13.8780201,47.1785355 Z" id="Shape"></path>
                    <g id="Group" transform="translate(10.162285, 0.000000)">
                        <path d="M0.563122918,36.2267747 L37.1118892,1.52733303 C38.1619229,0.542753859 39.8071991,0.567583102 40.8268131,1.58339699 L40.8268131,1.58340073 C41.8464323,2.59921308 41.8713572,4.23835573 40.8830913,5.28446393 L6.0536976,41.696863" id="Shape"></path>
                        <path d="M12.6219828,24.0419469 C12.6219828,24.0419469 14.4288856,24.7831913 15.6689216,26.0186019 C16.8380945,27.1834125 17.7238316,29.1247723 17.7238316,29.1247723" id="Shape"></path>
                    </g>
                </g>
            </g>
        </g>
    </g>
</svg>